HIERARCHY
ROOT Hips
{
     OFFSET -107.43100 97.64760 103.07000
     CHANNELS 6 Xposition Yposition Zposition Zrotation Xrotation Yrotation
     JOINT Spine
     {
          OFFSET 0.00000 11.89050 -0.00000
          CHANNELS 3 Zrotation Xrotation Yrotation
          JOINT Spine1
          {
               OFFSET 0.00000 25.65740 0.12766
               CHANNELS 3 Zrotation Xrotation Yrotation
               JOINT HEad
               {
                    OFFSET -0.00000 8.73416 0.01134
                    CHANNELS 3 Zrotation Xrotation Yrotation
                    End Site
                    {
                         OFFSET -0.29000 12.77420 2.51395
                    }
               }
               JOINT LeftShoulder1
               {
                    OFFSET 8.99000 -0.36225 -0.22000
                    CHANNELS 3 Zrotation Xrotation Yrotation
                    JOINT LeftArm
                    {
                         OFFSET 10.28270 -0.00338 0.32212
                         CHANNELS 3 Zrotation Xrotation Yrotation
                         JOINT LeftForeArm
                         {
                              OFFSET 32.76690 0.09914 -1.42434
                              CHANNELS 3 Zrotation Xrotation Yrotation
                              JOINT LeftHand
                              {
                                   OFFSET 27.56430 0.08536 1.02216
                                   CHANNELS 3 Zrotation Xrotation Yrotation
                                   End Site
                                   {
                                        OFFSET 16.74430 -0.60000 1.50291
                                   }
                              }
                         }
                    }
               }
               JOINT RightShoulder
               {
                    OFFSET -8.99000 -0.36225 -0.22000
                    CHANNELS 3 Zrotation Xrotation Yrotation
                    JOINT RightArm
                    {
                         OFFSET -10.28270 -0.00338 0.32212
                         CHANNELS 3 Zrotation Xrotation Yrotation
                         JOINT RightForeArm
                         {
                              OFFSET -32.89710 0.09914 -1.42434
                              CHANNELS 3 Zrotation Xrotation Yrotation
                              JOINT RightHand
                              {
                                   OFFSET -27.49210 0.08536 1.02216
                                   CHANNELS 3 Zrotation Xrotation Yrotation
                                   End Site
                                   {
                                        OFFSET -16.63120 -0.60000 1.50291
                                   }
                              }
                         }
                    }
               }
          }
     }
     JOINT LeftUpLeg
     {
          OFFSET 8.94580 -8.66707 0.10165
          CHANNELS 3 Zrotation Xrotation Yrotation
          JOINT LeftLeg
          {
               OFFSET 0.00000 -44.42270 1.37270
               CHANNELS 3 Zrotation Xrotation Yrotation
               JOINT LeftFoot
               {
                    OFFSET -0.25355 -42.09240 -1.46059
                    CHANNELS 3 Zrotation Xrotation Yrotation
                    JOINT LeftToes
                    {
                         OFFSET -0.04000 -4.41509 8.49910
                         CHANNELS 3 Zrotation Xrotation Yrotation
                         End Site
                         {
                              OFFSET 0.08000 -0.04745 9.77979
                         }
                    }
               }
          }
     }
     JOINT RightUpLeg
     {
          OFFSET -8.94580 -8.66707 0.10165
          CHANNELS 3 Zrotation Xrotation Yrotation
          JOINT RightLeg
          {
               OFFSET 0.00000 -44.42270 1.37270
               CHANNELS 3 Zrotation Xrotation Yrotation
               JOINT RightFoot
               {
                    OFFSET 0.25355 -42.09240 -1.46059
                    CHANNELS 3 Zrotation Xrotation Yrotation
                    JOINT RightToes
                    {
                         OFFSET 0.04000 -4.41509 8.49910
                         CHANNELS 3 Zrotation Xrotation Yrotation
                         End Site
                         {
                              OFFSET -0.08000 -0.13745 9.77979
                         }
                    }
               }
          }
     }
}
MOTION
Frames: 15
Frame Time: 0.01667
-19.65950 94.59590 17.83810 7.47570 7.99726 98.20260 -0.30468 8.13370 -0.21013 -0.41565 16.30650 -0.28295 -11.39510 -4.85130 30.50810 -0.00000 -0.00000 0.00000 -56.88490 5.89912 -5.20036 -13.32610 24.98790 -69.47330 5.55594 9.67997 -0.87718 31.44550 3.41282 8.13304 8.16602 -4.79592 14.62000 5.66305 24.42130 97.14700 -5.55712 9.68432 0.87760 0.42668 -13.57140 8.34048 -9.25782 81.32960 1.07029 -15.82660 -4.97036 0.38971 1.32787 -8.35912 -7.08401 3.33529 -24.66830 -8.23384 -2.58522 30.23700 17.43200 22.21930 -21.27710 2.48751 13.98610 13.01750 -7.44267 
-17.13750 93.98940 15.40620 9.16902 8.60545 96.58320 0.37826 8.88233 0.36636 -0.18870 17.63110 0.86655 -13.01410 -4.05766 30.44320 -0.00000 -0.00000 0.00000 -56.97020 6.08226 -3.43237 -13.30700 25.01280 -69.55260 5.55594 9.67997 -0.87718 31.38080 3.40528 8.12903 10.18080 -9.11947 23.01810 6.92122 25.69700 96.93620 -5.55712 9.68432 0.87760 2.92524 -17.56420 8.31420 -2.09112 83.16620 -5.02151 -14.77390 -5.55018 0.29260 1.51847 -9.47259 -8.64504 3.83217 -23.91280 -8.56883 -4.09386 33.31010 19.70750 16.70980 -22.25060 1.93928 17.94050 14.63910 -11.60310 
-14.62900 93.20690 13.05440 10.76380 9.24574 95.13850 0.60708 9.53162 1.03976 0.15680 18.89400 1.86380 -14.53510 -3.32061 30.32140 -0.00000 -0.00000 0.00000 -56.57860 6.29204 -2.74270 -12.96380 24.68910 -70.89480 5.55594 9.67997 -0.87718 30.74530 3.28359 7.94181 13.97960 -13.44740 32.51710 8.97406 27.36370 95.56460 -5.55712 9.68432 0.87760 5.46448 -21.42400 7.85082 4.43874 82.96120 -10.25450 -12.95260 -6.04737 0.20479 1.69482 -11.32460 -10.67510 4.08250 -23.49890 -8.66837 -5.94021 37.46120 21.99700 9.23525 -22.36100 0.95412 20.01710 14.99730 -14.19690 
-12.12460 92.30010 10.75670 12.18140 9.87318 94.05640 0.44965 10.13260 1.62626 0.61199 20.06690 2.69839 -15.94720 -2.59746 30.15140 -0.00000 -0.00000 0.00000 -55.71020 6.45995 -3.13252 -12.29950 23.91050 -73.37940 5.55594 9.67997 -0.87718 29.53140 3.06199 7.59640 19.74440 -17.01100 42.99710 11.33880 29.06200 93.16810 -5.55712 9.68432 0.87760 7.80102 -24.84780 7.21460 8.13656 80.59900 -12.53070 -10.45150 -6.72371 0.11101 1.76094 -13.68470 -12.69870 4.09331 -23.11800 -8.56273 -7.99310 41.78010 23.59540 0.51556 -20.66980 -0.19926 18.69520 13.54090 -14.00110 
-9.69819 91.32290 8.54035 13.36880 10.58040 93.39780 -0.21215 10.69680 2.06764 1.13074 21.11640 3.37667 -17.22710 -1.84801 29.94470 -0.00000 -0.00000 0.00000 -54.34280 6.33053 -4.58046 -11.39230 22.64390 -76.78710 5.55594 9.67997 -0.87718 27.78590 2.77232 7.14553 27.01380 -19.02580 53.87030 13.11030 30.38110 90.37840 -5.55712 9.68432 0.87760 9.61455 -27.53900 6.71425 10.05810 75.97350 -13.06550 -7.80383 -7.76970 0.02365 1.71217 -15.75760 -14.09560 3.68941 -22.63390 -8.31944 -10.01480 45.74080 23.97030 -8.15487 -17.24090 -0.93497 13.70530 9.61416 -11.27250 
-7.36305 90.22230 6.33863 14.31090 11.23350 93.12160 -0.99976 11.24230 2.34080 1.71066 22.01810 3.91998 -18.34510 -1.03821 29.71960 -0.00000 -0.00000 0.00000 -52.47220 5.38690 -7.02283 -10.43890 21.07590 -80.73830 5.55594 9.67997 -0.87718 25.61950 2.45456 6.65510 34.01560 -18.55920 64.08330 13.39930 30.15820 88.03010 -5.55712 9.68432 0.87760 10.95990 -29.31740 6.40882 10.92370 69.39300 -12.83780 -5.98521 -9.43680 -0.05245 1.71204 -15.97590 -14.33460 2.86519 -22.21900 -8.00045 -11.86770 49.61870 23.10280 -15.48770 -13.67150 -1.04411 6.83095 3.57731 -7.84591 
-5.07715 88.97440 4.04642 15.05110 11.60600 93.08450 -1.30173 11.70720 2.46681 2.38166 22.72710 4.36142 -19.27120 -0.14472 29.50350 -0.00000 -0.00000 0.00000 -50.19590 2.03609 -10.34410 -9.84875 20.60500 -84.52820 5.55594 9.67997 -0.87718 23.19790 2.14462 6.18386 37.86230 -15.26430 72.64820 11.98190 26.46910 86.47690 -5.55712 9.68432 0.87760 12.20150 -30.06910 6.21650 10.72380 61.39770 -12.15420 -5.92827 -11.67430 -0.15554 1.88568 -12.87660 -13.18640 1.77604 -22.00100 -7.67337 -13.60840 53.79260 21.64460 -20.67600 -11.75570 -0.95780 0.53440 -2.61473 -5.25494 
-2.75881 87.60800 1.57737 15.67250 11.55530 93.07930 -0.72542 11.97100 2.52339 3.15208 23.18790 4.73797 -19.98270 0.83988 29.33100 -0.00000 -0.00000 0.00000 -48.02890 -3.45928 -14.34150 -9.77669 20.87290 -87.67470 5.55594 9.67997 -0.87718 20.71150 1.86598 5.76746 39.59860 -11.67640 79.55910 9.92622 21.68120 85.33220 -5.55712 9.68432 0.87760 13.65540 -29.74240 6.10389 9.71881 52.53950 -11.41020 -7.70007 -13.83360 -0.35400 1.95207 -7.38470 -10.69440 0.59280 -21.91870 -7.40392 -15.44090 58.35060 20.65660 -23.51360 -12.24380 -1.17200 -3.85401 -7.14490 -3.61955 
-0.34149 86.20230 -1.08162 16.24450 11.12100 92.93600 0.62831 11.96280 2.60313 3.96572 23.37330 5.07961 -20.46930 1.90455 29.23930 -0.00000 -0.00000 0.00000 -46.48880 -10.59170 -18.89160 -10.29860 21.63060 -89.69750 5.55594 9.67997 -0.87718 18.33500 1.62836 5.41407 40.22690 -8.72131 85.02390 7.89172 16.98330 84.35150 -5.55712 9.68432 0.87760 15.30760 -28.36910 6.08218 8.39806 43.19960 -10.85970 -10.38810 -14.89130 -0.59448 1.58781 -2.80136 -7.47002 -0.63980 -21.77230 -7.21480 -17.60590 63.03750 21.06410 -24.27780 -14.87710 -1.80405 -6.12119 -9.41834 -2.51275 
2.19069 84.85540 -3.86599 16.79210 10.47430 92.59230 2.29622 11.72450 2.75421 4.71725 23.30820 5.40039 -20.73710 3.01981 29.26280 -0.00000 -0.00000 0.00000 -46.00230 -18.72410 -24.01330 -11.32210 22.78660 -90.32830 5.55594 9.67997 -0.87718 16.19730 1.43181 5.11176 40.46140 -6.58968 89.21130 6.16813 13.01450 83.45450 -5.55712 9.68432 0.87760 16.90420 -26.09780 6.12610 7.15602 33.70600 -10.44310 -13.00140 -14.27040 -0.69526 1.03386 -0.97601 -4.62959 -1.97428 -21.38070 -7.04907 -20.31460 67.47970 23.30210 -23.48620 -18.98340 -2.66600 -6.58943 -9.66852 -1.68824 
4.85546 83.57020 -6.75481 17.34060 9.68732 92.03600 4.07544 11.31970 2.96168 5.34885 23.03450 5.69823 -20.80920 4.14133 29.42630 -0.00000 -0.00000 0.00000 -46.82460 -26.97310 -29.82130 -12.58590 24.08200 -89.68150 5.55594 9.67997 -0.87718 14.37320 1.27189 4.84085 40.62780 -5.16372 92.28420 4.84187 9.97126 82.61650 -5.55712 9.68432 0.87760 18.35240 -23.48140 6.20247 6.20621 25.17750 -10.04680 -15.04320 -12.43200 -0.57961 0.65066 -1.31761 -2.86390 -3.39639 -20.67890 -6.80545 -23.88590 71.51480 27.53180 -21.69170 -23.92620 -3.51331 -5.80652 -8.50210 -1.16219 
7.73101 82.31130 -9.75307 17.82860 9.03003 91.48640 5.25404 10.96650 3.07735 5.73532 22.67450 5.94748 -20.72350 5.21592 29.74060 -0.00000 -0.00000 0.00000 -49.00830 -34.55050 -36.40400 -13.80230 25.26350 -88.15800 5.55594 9.67997 -0.87718 12.89310 1.14332 4.58422 40.81060 -4.28351 94.42410 3.91292 7.82147 81.82880 -5.55712 9.68432 0.87760 19.39710 -21.66700 6.19827 5.56801 19.68280 -9.75734 -16.30340 -10.57320 -0.37414 0.52918 -2.81615 -2.24040 -5.05343 -19.65990 -6.30598 -28.89560 75.11320 33.75530 -19.16380 -29.24590 -4.14168 -4.37727 -6.67117 -1.05166 
10.50780 81.31820 -12.53160 18.27630 8.63200 90.86340 5.59092 10.69330 3.18874 5.86270 22.27190 6.12409 -20.52790 6.18961 30.19780 -0.00000 -0.00000 0.00000 -52.42650 -40.97480 -43.71720 -14.77880 26.20550 -86.23430 5.55594 9.67997 -0.87718 11.75710 1.04148 4.33287 40.99050 -3.83650 95.81830 3.34569 6.45206 81.10420 -5.55712 9.68432 0.87760 19.97970 -20.25880 6.09914 5.08635 16.25340 -9.22714 -17.01080 -8.20922 -0.04927 0.61852 -5.06405 -2.62514 -6.76039 -18.37880 -5.47032 -34.65920 77.77460 40.91430 -16.31570 -33.85230 -4.33630 -2.82355 -4.87101 -1.40991 
13.12630 80.57620 -15.07010 18.69660 8.46672 90.17720 5.16213 10.53680 3.28547 5.75611 21.87350 6.20521 -20.27300 7.01559 30.77020 -0.00000 -0.00000 0.00000 -56.82060 -46.07980 -51.55880 -15.45500 26.90590 -84.29490 5.55594 9.67997 -0.87718 10.94900 0.96289 4.08732 41.12960 -3.76042 96.64220 3.08901 5.73857 80.48490 -5.55712 9.68432 0.87760 20.19640 -19.45700 5.94558 4.69876 15.13330 -8.48227 -17.29650 -5.40190 0.36184 0.83615 -8.23894 -3.91257 -8.39714 -16.99970 -4.28988 -40.78080 79.65380 48.23730 -13.34770 -37.38090 -4.10445 -1.48762 -3.55278 -2.17858 
15.58070 80.03590 -17.40440 19.10410 8.47557 89.42950 4.14893 10.48870 3.37084 5.46359 21.50490 6.18063 -20.00510 7.66191 31.41160 -0.00000 -0.00000 0.00000 -61.86030 -49.91350 -59.61310 -15.86990 27.42560 -82.57690 5.55594 9.67997 -0.87718 10.44370 0.90507 3.85619 41.21370 -4.01809 97.04910 3.08349 5.56526 80.03450 -5.55712 9.68432 0.87760 20.15160 -19.24290 5.80498 4.34043 16.10800 -7.57028 -17.36640 -1.91249 0.87503 1.05425 -12.83070 -6.02221 -9.89938 -15.63990 -2.80404 -46.95160 80.96440 55.20890 -10.40250 -39.74940 -3.54822 -0.50807 -2.85921 -3.24039 
